<svg id="visual" viewBox="0 0 960 540" width="960" height="540" xmlns="http://www.w3.org/2000/svg" xmlns:xlink="http://www.w3.org/1999/xlink" version="1.1"><rect x="0" y="0" width="960" height="540" fill="#e3e9ed"></rect><path d="M0 370L16 371.5C32 373 64 376 96 385C128 394 160 409 192 411.7C224 414.3 256 404.7 288 398.8C320 393 352 391 384 396.5C416 402 448 415 480 410.8C512 406.7 544 385.3 576 373.2C608 361 640 358 672 356.2C704 354.3 736 353.7 768 363.3C800 373 832 393 864 400.3C896 407.7 928 402.3 944 399.7L960 397L960 0L944 0C928 0 896 0 864 0C832 0 800 0 768 0C736 0 704 0 672 0C640 0 608 0 576 0C544 0 512 0 480 0C448 0 416 0 384 0C352 0 320 0 288 0C256 0 224 0 192 0C160 0 128 0 96 0C64 0 32 0 16 0L0 0Z" fill="#fbfe8d"></path><path d="M0 306L16 306.8C32 307.7 64 309.3 96 313.2C128 317 160 323 192 327.2C224 331.3 256 333.7 288 328C320 322.3 352 308.7 384 301.8C416 295 448 295 480 307.5C512 320 544 345 576 343.5C608 342 640 314 672 305.2C704 296.3 736 306.7 768 308.3C800 310 832 303 864 301.5C896 300 928 304 944 306L960 308L960 0L944 0C928 0 896 0 864 0C832 0 800 0 768 0C736 0 704 0 672 0C640 0 608 0 576 0C544 0 512 0 480 0C448 0 416 0 384 0C352 0 320 0 288 0C256 0 224 0 192 0C160 0 128 0 96 0C64 0 32 0 16 0L0 0Z" fill="#fbfe7e"></path><path d="M0 268L16 273C32 278 64 288 96 288.8C128 289.7 160 281.3 192 281.8C224 282.3 256 291.7 288 290.3C320 289 352 277 384 267.3C416 257.7 448 250.3 480 247C512 243.7 544 244.3 576 243C608 241.7 640 238.3 672 246.5C704 254.7 736 274.3 768 279.3C800 284.3 832 274.7 864 277.3C896 280 928 295 944 302.5L960 310L960 0L944 0C928 0 896 0 864 0C832 0 800 0 768 0C736 0 704 0 672 0C640 0 608 0 576 0C544 0 512 0 480 0C448 0 416 0 384 0C352 0 320 0 288 0C256 0 224 0 192 0C160 0 128 0 96 0C64 0 32 0 16 0L0 0Z" fill="#faff6f"></path><path d="M0 263L16 252.2C32 241.3 64 219.7 96 214.2C128 208.7 160 219.3 192 225.2C224 231 256 232 288 236.8C320 241.7 352 250.3 384 254.3C416 258.3 448 257.7 480 259.5C512 261.3 544 265.7 576 259.5C608 253.3 640 236.7 672 236.8C704 237 736 254 768 254.7C800 255.3 832 239.7 864 234C896 228.3 928 232.7 944 234.8L960 237L960 0L944 0C928 0 896 0 864 0C832 0 800 0 768 0C736 0 704 0 672 0C640 0 608 0 576 0C544 0 512 0 480 0C448 0 416 0 384 0C352 0 320 0 288 0C256 0 224 0 192 0C160 0 128 0 96 0C64 0 32 0 16 0L0 0Z" fill="#faff5e"></path><path d="M0 145L16 147C32 149 64 153 96 162.8C128 172.7 160 188.3 192 187.8C224 187.3 256 170.7 288 170.5C320 170.3 352 186.7 384 186.5C416 186.3 448 169.7 480 164.3C512 159 544 165 576 164.3C608 163.7 640 156.3 672 158C704 159.7 736 170.3 768 173C800 175.7 832 170.3 864 169.2C896 168 928 171 944 172.5L960 174L960 0L944 0C928 0 896 0 864 0C832 0 800 0 768 0C736 0 704 0 672 0C640 0 608 0 576 0C544 0 512 0 480 0C448 0 416 0 384 0C352 0 320 0 288 0C256 0 224 0 192 0C160 0 128 0 96 0C64 0 32 0 16 0L0 0Z" fill="#faff4b"></path><path d="M0 90L16 90C32 90 64 90 96 99.7C128 109.3 160 128.7 192 130.8C224 133 256 118 288 116.8C320 115.7 352 128.3 384 128.2C416 128 448 115 480 109.2C512 103.3 544 104.7 576 105.5C608 106.3 640 106.7 672 110.8C704 115 736 123 768 129.7C800 136.3 832 141.7 864 142.3C896 143 928 139 944 137L960 135L960 0L944 0C928 0 896 0 864 0C832 0 800 0 768 0C736 0 704 0 672 0C640 0 608 0 576 0C544 0 512 0 480 0C448 0 416 0 384 0C352 0 320 0 288 0C256 0 224 0 192 0C160 0 128 0 96 0C64 0 32 0 16 0L0 0Z" fill="#f9ff33"></path><path d="M0 50L16 50.5C32 51 64 52 96 52.8C128 53.7 160 54.3 192 57.7C224 61 256 67 288 72.8C320 78.7 352 84.3 384 82.5C416 80.7 448 71.3 480 66.5C512 61.7 544 61.3 576 59.3C608 57.3 640 53.7 672 55.2C704 56.7 736 63.3 768 63.3C800 63.3 832 56.7 864 54.7C896 52.7 928 55.3 944 56.7L960 58L960 0L944 0C928 0 896 0 864 0C832 0 800 0 768 0C736 0 704 0 672 0C640 0 608 0 576 0C544 0 512 0 480 0C448 0 416 0 384 0C352 0 320 0 288 0C256 0 224 0 192 0C160 0 128 0 96 0C64 0 32 0 16 0L0 0Z" fill="#f9ff00"></path></svg>