<svg id="visual" viewBox="0 0 960 540" width="960" height="540" xmlns="http://www.w3.org/2000/svg" xmlns:xlink="http://www.w3.org/1999/xlink" version="1.1"><rect x="0" y="0" width="960" height="540" fill="#e3e9ed"></rect><path d="M661 0L663.5 9C666 18 671 36 687 54C703 72 730 90 734.8 108C739.7 126 722.3 144 711.8 162C701.3 180 697.7 198 707.5 216C717.3 234 740.7 252 733.5 270C726.3 288 688.7 306 666.8 324C645 342 639 360 635.5 378C632 396 631 414 648.3 432C665.7 450 701.3 468 714.3 486C727.3 504 717.7 522 712.8 531L708 540L0 540L0 531C0 522 0 504 0 486C0 468 0 450 0 432C0 414 0 396 0 378C0 360 0 342 0 324C0 306 0 288 0 270C0 252 0 234 0 216C0 198 0 180 0 162C0 144 0 126 0 108C0 90 0 72 0 54C0 36 0 18 0 9L0 0Z" fill="#fbfe8d"></path><path d="M547 0L548.5 9C550 18 553 36 559.8 54C566.7 72 577.3 90 584.7 108C592 126 596 144 586 162C576 180 552 198 539.8 216C527.7 234 527.3 252 549.3 270C571.3 288 615.7 306 613.2 324C610.7 342 561.3 360 545.7 378C530 396 548 414 550.7 432C553.3 450 540.7 468 538.2 486C535.7 504 543.3 522 547.2 531L551 540L0 540L0 531C0 522 0 504 0 486C0 468 0 450 0 432C0 414 0 396 0 378C0 360 0 342 0 324C0 306 0 288 0 270C0 252 0 234 0 216C0 198 0 180 0 162C0 144 0 126 0 108C0 90 0 72 0 54C0 36 0 18 0 9L0 0Z" fill="#fbfe7e"></path><path d="M479 0L487.8 9C496.7 18 514.3 36 515.8 54C517.3 72 502.7 90 503.7 108C504.7 126 521.3 144 518.8 162C516.3 180 494.7 198 477.5 216C460.3 234 447.7 252 441.8 270C436 288 437 306 434.5 324C432 342 426 360 440.7 378C455.3 396 490.7 414 499.7 432C508.7 450 491.3 468 496 486C500.7 504 527.3 522 540.7 531L554 540L0 540L0 531C0 522 0 504 0 486C0 468 0 450 0 432C0 414 0 396 0 378C0 360 0 342 0 324C0 306 0 288 0 270C0 252 0 234 0 216C0 198 0 180 0 162C0 144 0 126 0 108C0 90 0 72 0 54C0 36 0 18 0 9L0 0Z" fill="#faff6f"></path><path d="M471 0L451.7 9C432.3 18 393.7 36 383.7 54C373.7 72 392.3 90 402.7 108C413 126 415 144 423.5 162C432 180 447 198 454.2 216C461.3 234 460.7 252 464.2 270C467.7 288 475.3 306 464.3 324C453.3 342 423.7 360 423.8 378C424 396 454 414 455.3 432C456.7 450 429.3 468 419.5 486C409.7 504 417.3 522 421.2 531L425 540L0 540L0 531C0 522 0 504 0 486C0 468 0 450 0 432C0 414 0 396 0 378C0 360 0 342 0 324C0 306 0 288 0 270C0 252 0 234 0 216C0 198 0 180 0 162C0 144 0 126 0 108C0 90 0 72 0 54C0 36 0 18 0 9L0 0Z" fill="#faff5e"></path><path d="M261 0L264.3 9C267.7 18 274.3 36 291.8 54C309.3 72 337.7 90 336.8 108C336 126 306 144 305.7 162C305.3 180 334.7 198 334.5 216C334.3 234 304.7 252 295.2 270C285.7 288 296.3 306 295.2 324C294 342 281 360 284 378C287 396 306 414 310.7 432C315.3 450 305.7 468 303.5 486C301.3 504 306.7 522 309.3 531L312 540L0 540L0 531C0 522 0 504 0 486C0 468 0 450 0 432C0 414 0 396 0 378C0 360 0 342 0 324C0 306 0 288 0 270C0 252 0 234 0 216C0 198 0 180 0 162C0 144 0 126 0 108C0 90 0 72 0 54C0 36 0 18 0 9L0 0Z" fill="#faff4b"></path><path d="M163 0L163 9C163 18 163 36 180.2 54C197.3 72 231.7 90 235.3 108C239 126 212 144 209.8 162C207.7 180 230.3 198 230 216C229.7 234 206.3 252 196.2 270C186 288 189 306 190.7 324C192.3 342 192.7 360 199.8 378C207 396 221 414 232.7 432C244.3 450 253.7 468 254.8 486C256 504 249 522 245.5 531L242 540L0 540L0 531C0 522 0 504 0 486C0 468 0 450 0 432C0 414 0 396 0 378C0 360 0 342 0 324C0 306 0 288 0 270C0 252 0 234 0 216C0 198 0 180 0 162C0 144 0 126 0 108C0 90 0 72 0 54C0 36 0 18 0 9L0 0Z" fill="#f9ff33"></path><path d="M91 0L91.8 9C92.7 18 94.3 36 95.8 54C97.3 72 98.7 90 104.7 108C110.7 126 121.3 144 131.8 162C142.3 180 152.7 198 149.5 216C146.3 234 129.7 252 121.2 270C112.7 288 112.3 306 108.8 324C105.3 342 98.7 360 101.2 378C103.7 396 115.3 414 115.3 432C115.3 450 103.7 468 100.2 486C96.7 504 101.3 522 103.7 531L106 540L0 540L0 531C0 522 0 504 0 486C0 468 0 450 0 432C0 414 0 396 0 378C0 360 0 342 0 324C0 306 0 288 0 270C0 252 0 234 0 216C0 198 0 180 0 162C0 144 0 126 0 108C0 90 0 72 0 54C0 36 0 18 0 9L0 0Z" fill="#f9ff00"></path></svg>