<svg id="visual" viewBox="0 0 960 540" width="960" height="540" xmlns="http://www.w3.org/2000/svg" xmlns:xlink="http://www.w3.org/1999/xlink" version="1.1"><rect x="0" y="0" width="960" height="540" fill="#e3e9ed"></rect><path d="M0 265L16 269.3C32 273.7 64 282.3 96 282.2C128 282 160 273 192 264.2C224 255.3 256 246.7 288 248.3C320 250 352 262 384 272.3C416 282.7 448 291.3 480 296.2C512 301 544 302 576 292C608 282 640 261 672 259.3C704 257.7 736 275.3 768 278.5C800 281.7 832 270.3 864 263C896 255.7 928 252.3 944 250.7L960 249L960 0L944 0C928 0 896 0 864 0C832 0 800 0 768 0C736 0 704 0 672 0C640 0 608 0 576 0C544 0 512 0 480 0C448 0 416 0 384 0C352 0 320 0 288 0C256 0 224 0 192 0C160 0 128 0 96 0C64 0 32 0 16 0L0 0Z" fill="#f6fa69"></path><path d="M0 250L16 249.8C32 249.7 64 249.3 96 243.2C128 237 160 225 192 216.5C224 208 256 203 288 206.7C320 210.3 352 222.7 384 228C416 233.3 448 231.7 480 226C512 220.3 544 210.7 576 212.8C608 215 640 229 672 237C704 245 736 247 768 240.7C800 234.3 832 219.7 864 213.2C896 206.7 928 208.3 944 209.2L960 210L960 0L944 0C928 0 896 0 864 0C832 0 800 0 768 0C736 0 704 0 672 0C640 0 608 0 576 0C544 0 512 0 480 0C448 0 416 0 384 0C352 0 320 0 288 0C256 0 224 0 192 0C160 0 128 0 96 0C64 0 32 0 16 0L0 0Z" fill="#f4ef5d"></path><path d="M0 222L16 223.2C32 224.3 64 226.7 96 221C128 215.3 160 201.7 192 193.2C224 184.7 256 181.3 288 181.2C320 181 352 184 384 185.5C416 187 448 187 480 189C512 191 544 195 576 201.7C608 208.3 640 217.7 672 217C704 216.3 736 205.7 768 195.7C800 185.7 832 176.3 864 181.2C896 186 928 205 944 214.5L960 224L960 0L944 0C928 0 896 0 864 0C832 0 800 0 768 0C736 0 704 0 672 0C640 0 608 0 576 0C544 0 512 0 480 0C448 0 416 0 384 0C352 0 320 0 288 0C256 0 224 0 192 0C160 0 128 0 96 0C64 0 32 0 16 0L0 0Z" fill="#f3e551"></path><path d="M0 145L16 143.3C32 141.7 64 138.3 96 144.8C128 151.3 160 167.7 192 174C224 180.3 256 176.7 288 173.5C320 170.3 352 167.7 384 164.7C416 161.7 448 158.3 480 160.7C512 163 544 171 576 167.2C608 163.3 640 147.7 672 140.5C704 133.3 736 134.7 768 137.3C800 140 832 144 864 152.2C896 160.3 928 172.7 944 178.8L960 185L960 0L944 0C928 0 896 0 864 0C832 0 800 0 768 0C736 0 704 0 672 0C640 0 608 0 576 0C544 0 512 0 480 0C448 0 416 0 384 0C352 0 320 0 288 0C256 0 224 0 192 0C160 0 128 0 96 0C64 0 32 0 16 0L0 0Z" fill="#f1da46"></path><path d="M0 145L16 139.8C32 134.7 64 124.3 96 123.2C128 122 160 130 192 133.8C224 137.7 256 137.3 288 131.7C320 126 352 115 384 113.2C416 111.3 448 118.7 480 121.3C512 124 544 122 576 121.2C608 120.3 640 120.7 672 124.3C704 128 736 135 768 133.7C800 132.3 832 122.7 864 115C896 107.3 928 101.7 944 98.8L960 96L960 0L944 0C928 0 896 0 864 0C832 0 800 0 768 0C736 0 704 0 672 0C640 0 608 0 576 0C544 0 512 0 480 0C448 0 416 0 384 0C352 0 320 0 288 0C256 0 224 0 192 0C160 0 128 0 96 0C64 0 32 0 16 0L0 0Z" fill="#efcf3b"></path><path d="M0 88L16 85.3C32 82.7 64 77.3 96 79.2C128 81 160 90 192 88.7C224 87.3 256 75.7 288 76C320 76.3 352 88.7 384 92C416 95.3 448 89.7 480 85.8C512 82 544 80 576 77C608 74 640 70 672 69.7C704 69.3 736 72.7 768 78.5C800 84.3 832 92.7 864 95C896 97.3 928 93.7 944 91.8L960 90L960 0L944 0C928 0 896 0 864 0C832 0 800 0 768 0C736 0 704 0 672 0C640 0 608 0 576 0C544 0 512 0 480 0C448 0 416 0 384 0C352 0 320 0 288 0C256 0 224 0 192 0C160 0 128 0 96 0C64 0 32 0 16 0L0 0Z" fill="#edc431"></path><path d="M0 61L16 57.5C32 54 64 47 96 46.7C128 46.3 160 52.7 192 52.8C224 53 256 47 288 45.5C320 44 352 47 384 48.2C416 49.3 448 48.7 480 50.7C512 52.7 544 57.3 576 57.8C608 58.3 640 54.7 672 49.3C704 44 736 37 768 39C800 41 832 52 864 57.8C896 63.7 928 64.3 944 64.7L960 65L960 0L944 0C928 0 896 0 864 0C832 0 800 0 768 0C736 0 704 0 672 0C640 0 608 0 576 0C544 0 512 0 480 0C448 0 416 0 384 0C352 0 320 0 288 0C256 0 224 0 192 0C160 0 128 0 96 0C64 0 32 0 16 0L0 0Z" fill="#eab926"></path></svg>